<mxfile host="65bd71144e">
    <diagram id="ZQVPd0geICQwPdu5hs3Y" name="Page-1">
        <mxGraphModel dx="4408" dy="2845" grid="0" gridSize="10" guides="1" tooltips="1" connect="1" arrows="1" fold="1" page="1" pageScale="1" pageWidth="850" pageHeight="1100" math="0" shadow="0">
            <root>
                <mxCell id="0"/>
                <mxCell id="1" parent="0"/>
                <mxCell id="147" value="" style="shape=parallelogram;html=1;strokeWidth=2;perimeter=parallelogramPerimeter;whiteSpace=wrap;rounded=1;arcSize=12;size=0.23;glass=0;sketch=1;hachureGap=4;jiggle=2;curveFitting=1;fontFamily=Architects Daughter;fontSource=https%3A%2F%2Ffonts.googleapis.com%2Fcss%3Ffamily%3DArchitects%2BDaughter;fontSize=40;fontColor=#FF33FF;labelBackgroundColor=none;labelBorderColor=#66FF66;" vertex="1" parent="1">
                    <mxGeometry x="-720" y="880" width="530" height="450" as="geometry"/>
                </mxCell>
                <mxCell id="99" value="" style="html=1;verticalLabelPosition=bottom;align=center;labelBackgroundColor=#ffffff;verticalAlign=top;strokeWidth=2;strokeColor=#36393d;shadow=0;dashed=0;shape=mxgraph.ios7.icons.globe;glass=0;sketch=1;hachureGap=4;jiggle=2;curveFitting=1;fontFamily=Architects Daughter;fontSource=https%3A%2F%2Ffonts.googleapis.com%2Fcss%3Ffamily%3DArchitects%2BDaughter;fontSize=23;fillColor=#cdeb8b;" vertex="1" parent="1">
                    <mxGeometry x="-620" y="1130" width="170" height="157.5" as="geometry"/>
                </mxCell>
                <mxCell id="33" style="edgeStyle=none;sketch=1;hachureGap=4;jiggle=2;curveFitting=1;html=1;entryX=0;entryY=0.5;entryDx=0;entryDy=0;fontFamily=Architects Daughter;fontSource=https%3A%2F%2Ffonts.googleapis.com%2Fcss%3Ffamily%3DArchitects%2BDaughter;fontSize=16;" edge="1" parent="1" source="2" target="31">
                    <mxGeometry relative="1" as="geometry"/>
                </mxCell>
                <mxCell id="2" value="File Structure Repo" style="swimlane;whiteSpace=wrap;html=1;startSize=23;rounded=1;sketch=1;curveFitting=1;jiggle=2;swimlaneLine=1;fontStyle=0" vertex="1" parent="1">
                    <mxGeometry x="-920" y="-95" width="590" height="720" as="geometry">
                        <mxRectangle x="10" y="190" width="90" height="30" as="alternateBounds"/>
                    </mxGeometry>
                </mxCell>
                <mxCell id="23" value="react-app" style="shape=partialRectangle;left=0;right=0;fillColor=none;strokeColor=#DFDFDF;shadow=0;dashed=0;perimeter=none;resizeWidth=1;align=left;spacing=21;glass=0;sketch=1;hachureGap=4;jiggle=2;curveFitting=1;fontFamily=Architects Daughter;fontSource=https%3A%2F%2Ffonts.googleapis.com%2Fcss%3Ffamily%3DArchitects%2BDaughter;fontSize=42;horizontal=1;html=1;spacingTop=9;labelPosition=center;verticalLabelPosition=middle;verticalAlign=middle;" vertex="1" parent="2">
                    <mxGeometry x="140" y="255" width="200" height="30" as="geometry"/>
                </mxCell>
                <mxCell id="20" value="Readme" style="strokeColor=none;fillColor=none;fontColor=#212529;perimeter=none;resizeWidth=1;align=left;spacing=21;glass=0;sketch=1;hachureGap=4;jiggle=2;curveFitting=1;fontFamily=Architects Daughter;fontSource=https%3A%2F%2Ffonts.googleapis.com%2Fcss%3Ffamily%3DArchitects%2BDaughter;fontSize=42;horizontal=1;html=1;spacingTop=9;labelPosition=center;verticalLabelPosition=middle;verticalAlign=middle;" vertex="1" parent="2">
                    <mxGeometry x="140" y="135" width="200" height="30" as="geometry"/>
                </mxCell>
                <mxCell id="21" value="Dockerfile" style="shape=partialRectangle;left=0;right=0;fillColor=none;strokeColor=#DFDFDF;shadow=0;dashed=0;perimeter=none;resizeWidth=1;align=left;spacing=21;glass=0;sketch=1;hachureGap=4;jiggle=2;curveFitting=1;fontFamily=Architects Daughter;fontSource=https%3A%2F%2Ffonts.googleapis.com%2Fcss%3Ffamily%3DArchitects%2BDaughter;fontSize=42;horizontal=1;html=1;spacingTop=9;labelPosition=center;verticalLabelPosition=middle;verticalAlign=middle;" vertex="1" parent="2">
                    <mxGeometry x="140" y="175" width="200" height="30" as="geometry"/>
                </mxCell>
                <mxCell id="24" value="docker-compose.yml&lt;br&gt;" style="strokeColor=none;fillColor=none;fontColor=#212529;perimeter=none;resizeWidth=1;align=left;spacing=21;glass=0;sketch=1;hachureGap=4;jiggle=2;curveFitting=1;fontFamily=Architects Daughter;fontSource=https%3A%2F%2Ffonts.googleapis.com%2Fcss%3Ffamily%3DArchitects%2BDaughter;fontSize=42;horizontal=1;html=1;spacingTop=9;labelPosition=center;verticalLabelPosition=middle;verticalAlign=middle;" vertex="1" parent="2">
                    <mxGeometry x="140" y="285" width="200" height="60" as="geometry"/>
                </mxCell>
                <mxCell id="22" value="Config" style="shape=partialRectangle;left=0;right=0;fillColor=none;strokeColor=#DFDFDF;shadow=0;dashed=0;perimeter=none;resizeWidth=1;align=left;spacing=21;glass=0;sketch=1;hachureGap=4;jiggle=2;curveFitting=1;fontFamily=Architects Daughter;fontSource=https%3A%2F%2Ffonts.googleapis.com%2Fcss%3Ffamily%3DArchitects%2BDaughter;fontSize=42;horizontal=1;html=1;spacingTop=9;labelPosition=center;verticalLabelPosition=middle;verticalAlign=middle;" vertex="1" parent="2">
                    <mxGeometry x="140" y="215" width="200" height="30" as="geometry"/>
                </mxCell>
                <mxCell id="106" value="" style="verticalLabelPosition=bottom;html=1;verticalAlign=top;align=center;strokeColor=#A50040;fillColor=#d80073;shape=mxgraph.azure.git_repository;glass=0;sketch=1;hachureGap=4;jiggle=2;curveFitting=1;fontFamily=Architects Daughter;fontSource=https%3A%2F%2Ffonts.googleapis.com%2Fcss%3Ffamily%3DArchitects%2BDaughter;fontSize=28;fontColor=#ffffff;" vertex="1" parent="2">
                    <mxGeometry x="190" y="355" width="159" height="130" as="geometry"/>
                </mxCell>
                <mxCell id="108" value="&lt;font color=&quot;#ff33ff&quot;&gt;Micro Services&lt;br&gt;For a better Experiance&lt;/font&gt;" style="text;html=1;align=center;verticalAlign=middle;resizable=0;points=[];autosize=1;strokeColor=none;fillColor=none;fontSize=40;fontFamily=Architects Daughter;sketch=1;hachureGap=4;jiggle=2;curveFitting=1;fontSource=https%3A%2F%2Ffonts.googleapis.com%2Fcss%3Ffamily%3DArchitects%2BDaughter;" vertex="1" parent="2">
                    <mxGeometry x="24.5" y="515" width="490" height="110" as="geometry"/>
                </mxCell>
                <mxCell id="35" style="edgeStyle=none;sketch=1;hachureGap=4;jiggle=2;curveFitting=1;html=1;fontFamily=Architects Daughter;fontSource=https%3A%2F%2Ffonts.googleapis.com%2Fcss%3Ffamily%3DArchitects%2BDaughter;fontSize=16;entryX=0;entryY=0.5;entryDx=0;entryDy=0;" edge="1" parent="1" source="31" target="34">
                    <mxGeometry relative="1" as="geometry">
                        <mxPoint x="710" y="388.62068965517255" as="targetPoint"/>
                    </mxGeometry>
                </mxCell>
                <mxCell id="31" value="&lt;font style=&quot;font-size: 23px;&quot;&gt;Container&lt;/font&gt;" style="swimlane;whiteSpace=wrap;html=1;startSize=23;rounded=1;sketch=1;curveFitting=1;jiggle=2;swimlaneLine=1;fontStyle=0;" vertex="1" parent="1">
                    <mxGeometry x="-160" y="-150" width="690" height="840" as="geometry">
                        <mxRectangle x="10" y="190" width="90" height="30" as="alternateBounds"/>
                    </mxGeometry>
                </mxCell>
                <mxCell id="36" value="" style="sketch=0;aspect=fixed;html=1;points=[];align=center;image;fontSize=12;image=img/lib/mscae/Docker.svg;glass=0;hachureGap=4;jiggle=2;curveFitting=1;fontFamily=Architects Daughter;fontSource=https%3A%2F%2Ffonts.googleapis.com%2Fcss%3Ffamily%3DArchitects%2BDaughter;" vertex="1" parent="31">
                    <mxGeometry x="570" y="30" width="110" height="90.2" as="geometry"/>
                </mxCell>
                <mxCell id="37" value="NginX" style="rounded=1;whiteSpace=wrap;html=1;strokeWidth=2;fillWeight=4;hachureGap=8;hachureAngle=45;fillColor=#f8cecc;sketch=1;glass=0;jiggle=2;curveFitting=1;fontFamily=Architects Daughter;fontSource=https%3A%2F%2Ffonts.googleapis.com%2Fcss%3Ffamily%3DArchitects%2BDaughter;fontSize=20;strokeColor=#b85450;" vertex="1" parent="31">
                    <mxGeometry x="250" y="160" width="120" height="60" as="geometry"/>
                </mxCell>
                <mxCell id="40" style="edgeStyle=none;sketch=1;hachureGap=4;jiggle=2;curveFitting=1;html=1;fontFamily=Architects Daughter;fontSource=https%3A%2F%2Ffonts.googleapis.com%2Fcss%3Ffamily%3DArchitects%2BDaughter;fontSize=16;" edge="1" parent="31" source="38" target="39">
                    <mxGeometry relative="1" as="geometry"/>
                </mxCell>
                <mxCell id="38" value="Db Dice Logs" style="rounded=1;whiteSpace=wrap;html=1;strokeWidth=2;fillWeight=4;hachureGap=8;hachureAngle=45;fillColor=#fff2cc;sketch=1;glass=0;jiggle=2;curveFitting=1;fontFamily=Architects Daughter;fontSource=https%3A%2F%2Ffonts.googleapis.com%2Fcss%3Ffamily%3DArchitects%2BDaughter;fontSize=20;strokeColor=#d6b656;" vertex="1" parent="31">
                    <mxGeometry x="250" y="690" width="120" height="60" as="geometry"/>
                </mxCell>
                <mxCell id="41" style="edgeStyle=none;sketch=1;hachureGap=4;jiggle=2;curveFitting=1;html=1;fontFamily=Architects Daughter;fontSource=https%3A%2F%2Ffonts.googleapis.com%2Fcss%3Ffamily%3DArchitects%2BDaughter;fontSize=16;entryX=0.5;entryY=1;entryDx=0;entryDy=0;" edge="1" parent="31" source="39" target="50">
                    <mxGeometry relative="1" as="geometry"/>
                </mxCell>
                <mxCell id="39" value="API" style="rounded=1;whiteSpace=wrap;html=1;strokeWidth=2;fillWeight=4;hachureGap=8;hachureAngle=45;fillColor=#d5e8d4;sketch=1;glass=0;jiggle=2;curveFitting=1;fontFamily=Architects Daughter;fontSource=https%3A%2F%2Ffonts.googleapis.com%2Fcss%3Ffamily%3DArchitects%2BDaughter;fontSize=20;strokeColor=#82b366;" vertex="1" parent="31">
                    <mxGeometry x="250" y="510" width="120" height="60" as="geometry"/>
                </mxCell>
                <mxCell id="42" value="" style="fontColor=#0066CC;verticalAlign=top;verticalLabelPosition=bottom;labelPosition=center;align=center;html=1;outlineConnect=0;fillColor=#CCCCCC;strokeColor=#6881B3;gradientColor=none;gradientDirection=north;strokeWidth=2;shape=mxgraph.networks.laptop;glass=0;sketch=1;hachureGap=4;jiggle=2;curveFitting=1;fontFamily=Architects Daughter;fontSource=https%3A%2F%2Ffonts.googleapis.com%2Fcss%3Ffamily%3DArchitects%2BDaughter;fontSize=20;" vertex="1" parent="31">
                    <mxGeometry x="120" y="160" width="100" height="55" as="geometry"/>
                </mxCell>
                <mxCell id="43" value="" style="fontColor=#0066CC;verticalAlign=top;verticalLabelPosition=bottom;labelPosition=center;align=center;html=1;outlineConnect=0;fillColor=#CCCCCC;strokeColor=#6881B3;gradientColor=none;gradientDirection=north;strokeWidth=2;shape=mxgraph.networks.laptop;glass=0;sketch=1;hachureGap=4;jiggle=2;curveFitting=1;fontFamily=Architects Daughter;fontSource=https%3A%2F%2Ffonts.googleapis.com%2Fcss%3Ffamily%3DArchitects%2BDaughter;fontSize=20;" vertex="1" parent="31">
                    <mxGeometry x="120" y="510" width="100" height="55" as="geometry"/>
                </mxCell>
                <mxCell id="44" value="" style="fontColor=#0066CC;verticalAlign=top;verticalLabelPosition=bottom;labelPosition=center;align=center;html=1;outlineConnect=0;fillColor=#CCCCCC;strokeColor=#6881B3;gradientColor=none;gradientDirection=north;strokeWidth=2;shape=mxgraph.networks.laptop;glass=0;sketch=1;hachureGap=4;jiggle=2;curveFitting=1;fontFamily=Architects Daughter;fontSource=https%3A%2F%2Ffonts.googleapis.com%2Fcss%3Ffamily%3DArchitects%2BDaughter;fontSize=20;" vertex="1" parent="31">
                    <mxGeometry x="120" y="690" width="100" height="55" as="geometry"/>
                </mxCell>
                <mxCell id="51" style="edgeStyle=none;sketch=1;hachureGap=4;jiggle=2;curveFitting=1;html=1;fontFamily=Architects Daughter;fontSource=https%3A%2F%2Ffonts.googleapis.com%2Fcss%3Ffamily%3DArchitects%2BDaughter;fontSize=23;" edge="1" parent="31" source="50" target="37">
                    <mxGeometry relative="1" as="geometry"/>
                </mxCell>
                <mxCell id="50" value="App&amp;nbsp;" style="rounded=1;whiteSpace=wrap;html=1;strokeWidth=2;fillWeight=4;hachureGap=8;hachureAngle=45;fillColor=#e1d5e7;sketch=1;glass=0;jiggle=2;curveFitting=1;fontFamily=Architects Daughter;fontSource=https%3A%2F%2Ffonts.googleapis.com%2Fcss%3Ffamily%3DArchitects%2BDaughter;fontSize=20;strokeColor=#9673a6;" vertex="1" parent="31">
                    <mxGeometry x="250" y="249.99" width="120" height="60" as="geometry"/>
                </mxCell>
                <mxCell id="52" value="" style="fontColor=#0066CC;verticalAlign=top;verticalLabelPosition=bottom;labelPosition=center;align=center;html=1;outlineConnect=0;fillColor=#CCCCCC;strokeColor=#6881B3;gradientColor=none;gradientDirection=north;strokeWidth=2;shape=mxgraph.networks.laptop;glass=0;sketch=1;hachureGap=4;jiggle=2;curveFitting=1;fontFamily=Architects Daughter;fontSource=https%3A%2F%2Ffonts.googleapis.com%2Fcss%3Ffamily%3DArchitects%2BDaughter;fontSize=20;" vertex="1" parent="31">
                    <mxGeometry x="120" y="245.01" width="100" height="55" as="geometry"/>
                </mxCell>
                <mxCell id="53" value="" style="strokeWidth=2;html=1;shape=mxgraph.flowchart.annotation_2;align=left;labelPosition=right;pointerEvents=1;glass=0;sketch=1;hachureGap=4;jiggle=2;curveFitting=1;fontFamily=Architects Daughter;fontSource=https%3A%2F%2Ffonts.googleapis.com%2Fcss%3Ffamily%3DArchitects%2BDaughter;fontSize=23;rotation=-181;" vertex="1" parent="31">
                    <mxGeometry x="359.3" y="190" width="50" height="89.99" as="geometry"/>
                </mxCell>
                <mxCell id="54" value="app served by&lt;br&gt;&amp;nbsp;nginx" style="text;html=1;align=center;verticalAlign=middle;resizable=0;points=[];autosize=1;strokeColor=none;fillColor=none;fontSize=23;fontFamily=Architects Daughter;sketch=1;hachureGap=4;jiggle=2;curveFitting=1;fontSource=https%3A%2F%2Ffonts.googleapis.com%2Fcss%3Ffamily%3DArchitects%2BDaughter;" vertex="1" parent="31">
                    <mxGeometry x="409.3" y="199.99" width="180" height="70" as="geometry"/>
                </mxCell>
                <mxCell id="56" value="" style="strokeWidth=2;html=1;shape=mxgraph.flowchart.annotation_2;align=left;labelPosition=right;pointerEvents=1;glass=0;sketch=1;hachureGap=4;jiggle=2;curveFitting=1;fontFamily=Architects Daughter;fontSource=https%3A%2F%2Ffonts.googleapis.com%2Fcss%3Ffamily%3DArchitects%2BDaughter;fontSize=23;rotation=-181;" vertex="1" parent="31">
                    <mxGeometry x="379.3" y="300.01" width="50" height="250" as="geometry"/>
                </mxCell>
                <mxCell id="57" value="api handles all&lt;br&gt;coms between&amp;nbsp;&lt;br&gt;app" style="text;html=1;align=center;verticalAlign=middle;resizable=0;points=[];autosize=1;strokeColor=none;fillColor=none;fontSize=23;fontFamily=Architects Daughter;sketch=1;hachureGap=4;jiggle=2;curveFitting=1;fontSource=https%3A%2F%2Ffonts.googleapis.com%2Fcss%3Ffamily%3DArchitects%2BDaughter;" vertex="1" parent="31">
                    <mxGeometry x="430" y="410" width="190" height="100" as="geometry"/>
                </mxCell>
                <mxCell id="72" value="" style="strokeWidth=2;html=1;shape=mxgraph.flowchart.annotation_2;align=left;labelPosition=right;pointerEvents=1;glass=0;sketch=1;hachureGap=4;jiggle=2;curveFitting=1;fontFamily=Architects Daughter;fontSource=https%3A%2F%2Ffonts.googleapis.com%2Fcss%3Ffamily%3DArchitects%2BDaughter;fontSize=42;rotation=-181;" vertex="1" parent="31">
                    <mxGeometry x="380.52" y="560" width="50" height="160" as="geometry"/>
                </mxCell>
                <mxCell id="73" value="bi directional&lt;br&gt;" style="text;html=1;align=center;verticalAlign=middle;resizable=0;points=[];autosize=1;strokeColor=none;fillColor=none;fontSize=42;fontFamily=Architects Daughter;sketch=1;hachureGap=4;jiggle=2;curveFitting=1;fontSource=https%3A%2F%2Ffonts.googleapis.com%2Fcss%3Ffamily%3DArchitects%2BDaughter;" vertex="1" parent="31">
                    <mxGeometry x="420" y="610" width="270" height="60" as="geometry"/>
                </mxCell>
                <mxCell id="34" value="" style="swimlane;whiteSpace=wrap;html=1;startSize=23;rounded=1;sketch=1;curveFitting=1;jiggle=2;swimlaneLine=1;fontStyle=0;glass=0;hachureGap=4;fontFamily=Architects Daughter;fontSource=https%3A%2F%2Ffonts.googleapis.com%2Fcss%3Ffamily%3DArchitects%2BDaughter;fontSize=20;" vertex="1" parent="1">
                    <mxGeometry x="770" y="-155" width="720" height="850" as="geometry">
                        <mxRectangle x="10" y="190" width="90" height="30" as="alternateBounds"/>
                    </mxGeometry>
                </mxCell>
                <mxCell id="67" value="" style="html=1;verticalLabelPosition=bottom;align=center;labelBackgroundColor=#ffffff;verticalAlign=top;strokeWidth=2;strokeColor=#36393d;shadow=0;dashed=0;shape=mxgraph.ios7.icons.globe;glass=0;sketch=1;hachureGap=4;jiggle=2;curveFitting=1;fontFamily=Architects Daughter;fontSource=https%3A%2F%2Ffonts.googleapis.com%2Fcss%3Ffamily%3DArchitects%2BDaughter;fontSize=23;fillColor=#cdeb8b;" vertex="1" parent="34">
                    <mxGeometry x="210" y="32.49" width="170" height="157.5" as="geometry"/>
                </mxCell>
                <mxCell id="85" style="edgeStyle=none;sketch=1;hachureGap=4;jiggle=2;curveFitting=1;html=1;entryX=0.524;entryY=0.975;entryDx=0;entryDy=0;entryPerimeter=0;fontFamily=Architects Daughter;fontSource=https%3A%2F%2Ffonts.googleapis.com%2Fcss%3Ffamily%3DArchitects%2BDaughter;fontSize=42;" edge="1" parent="34" source="59" target="67">
                    <mxGeometry relative="1" as="geometry"/>
                </mxCell>
                <mxCell id="59" value="cloudflare reverse proxy" style="rounded=1;whiteSpace=wrap;html=1;strokeWidth=2;fillWeight=4;hachureGap=8;hachureAngle=45;sketch=1;glass=0;jiggle=2;curveFitting=1;fontFamily=Architects Daughter;fontSource=https%3A%2F%2Ffonts.googleapis.com%2Fcss%3Ffamily%3DArchitects%2BDaughter;fontSize=20;fillColor=#cce5ff;strokeColor=#36393d;" vertex="1" parent="34">
                    <mxGeometry x="250" y="375" width="120" height="100" as="geometry"/>
                </mxCell>
                <mxCell id="64" value="user connects to website&lt;br&gt;website forwards to server" style="text;html=1;align=center;verticalAlign=middle;resizable=0;points=[];autosize=1;strokeColor=none;fillColor=none;fontSize=23;fontFamily=Architects Daughter;sketch=1;hachureGap=4;jiggle=2;curveFitting=1;fontSource=https%3A%2F%2Ffonts.googleapis.com%2Fcss%3Ffamily%3DArchitects%2BDaughter;" vertex="1" parent="34">
                    <mxGeometry x="370" y="390" width="330" height="70" as="geometry"/>
                </mxCell>
                <mxCell id="58" value="" style="verticalAlign=top;verticalLabelPosition=bottom;labelPosition=center;align=center;html=1;outlineConnect=0;fillColor=#6a00ff;strokeColor=#3700CC;gradientDirection=north;strokeWidth=2;shape=mxgraph.networks.users;glass=0;sketch=1;hachureGap=4;jiggle=2;curveFitting=1;fontFamily=Architects Daughter;fontSource=https%3A%2F%2Ffonts.googleapis.com%2Fcss%3Ffamily%3DArchitects%2BDaughter;fontSize=23;fontColor=#ffffff;" vertex="1" parent="34">
                    <mxGeometry x="250" y="65" width="90" height="100" as="geometry"/>
                </mxCell>
                <mxCell id="68" style="edgeStyle=none;sketch=1;hachureGap=4;jiggle=2;curveFitting=1;html=1;exitX=1;exitY=0.5;exitDx=0;exitDy=0;exitPerimeter=0;fontFamily=Architects Daughter;fontSource=https%3A%2F%2Ffonts.googleapis.com%2Fcss%3Ffamily%3DArchitects%2BDaughter;fontSize=23;startArrow=none;" edge="1" parent="34" source="67" target="58">
                    <mxGeometry relative="1" as="geometry"/>
                </mxCell>
                <mxCell id="69" value="" style="edgeStyle=none;sketch=1;hachureGap=4;jiggle=2;curveFitting=1;html=1;exitX=1;exitY=0.5;exitDx=0;exitDy=0;exitPerimeter=0;fontFamily=Architects Daughter;fontSource=https%3A%2F%2Ffonts.googleapis.com%2Fcss%3Ffamily%3DArchitects%2BDaughter;fontSize=23;endArrow=none;" edge="1" parent="34" source="58" target="67">
                    <mxGeometry relative="1" as="geometry">
                        <mxPoint x="1090" y="-25.000000000000227" as="sourcePoint"/>
                        <mxPoint x="1090" y="-18.076923076923322" as="targetPoint"/>
                    </mxGeometry>
                </mxCell>
                <mxCell id="84" style="edgeStyle=none;sketch=1;hachureGap=4;jiggle=2;curveFitting=1;html=1;fontFamily=Architects Daughter;fontSource=https%3A%2F%2Ffonts.googleapis.com%2Fcss%3Ffamily%3DArchitects%2BDaughter;fontSize=42;" edge="1" parent="34" source="83" target="59">
                    <mxGeometry relative="1" as="geometry"/>
                </mxCell>
                <mxCell id="83" value="Nginx proxy&amp;nbsp;Server" style="rounded=1;whiteSpace=wrap;html=1;strokeWidth=2;fillWeight=4;hachureGap=8;hachureAngle=45;sketch=1;glass=0;jiggle=2;curveFitting=1;fontFamily=Architects Daughter;fontSource=https%3A%2F%2Ffonts.googleapis.com%2Fcss%3Ffamily%3DArchitects%2BDaughter;fontSize=20;fillColor=#f8cecc;strokeColor=#b85450;direction=south;" vertex="1" parent="34">
                    <mxGeometry x="260" y="620" width="100" height="120" as="geometry"/>
                </mxCell>
                <mxCell id="87" value="&lt;font style=&quot;font-size: 28px;&quot;&gt;Bi Directional&lt;/font&gt;" style="text;html=1;align=center;verticalAlign=middle;resizable=0;points=[];autosize=1;strokeColor=none;fillColor=none;fontSize=42;fontFamily=Architects Daughter;sketch=1;hachureGap=4;jiggle=2;curveFitting=1;fontSource=https%3A%2F%2Ffonts.googleapis.com%2Fcss%3Ffamily%3DArchitects%2BDaughter;" vertex="1" parent="34">
                    <mxGeometry x="30" y="515" width="190" height="60" as="geometry"/>
                </mxCell>
                <mxCell id="89" value="" style="strokeWidth=2;html=1;shape=mxgraph.flowchart.annotation_2;align=left;labelPosition=right;pointerEvents=1;glass=0;sketch=1;hachureGap=4;jiggle=2;curveFitting=1;fontFamily=Architects Daughter;fontSource=https%3A%2F%2Ffonts.googleapis.com%2Fcss%3Ffamily%3DArchitects%2BDaughter;fontSize=25;" vertex="1" parent="34">
                    <mxGeometry x="220" y="430" width="50" height="240" as="geometry"/>
                </mxCell>
                <mxCell id="90" value="ssl cert provider" style="text;html=1;align=center;verticalAlign=middle;resizable=0;points=[];autosize=1;strokeColor=none;fillColor=none;fontSize=28;fontFamily=Architects Daughter;sketch=1;hachureGap=4;jiggle=2;curveFitting=1;fontSource=https%3A%2F%2Ffonts.googleapis.com%2Fcss%3Ffamily%3DArchitects%2BDaughter;" vertex="1" parent="34">
                    <mxGeometry x="355" y="690" width="250" height="50" as="geometry"/>
                </mxCell>
                <mxCell id="47" value="" style="fontColor=#0066CC;verticalAlign=top;verticalLabelPosition=bottom;labelPosition=center;align=center;html=1;outlineConnect=0;fillColor=#CCCCCC;strokeColor=#6881B3;gradientColor=none;gradientDirection=north;strokeWidth=2;shape=mxgraph.networks.laptop;glass=0;sketch=1;hachureGap=4;jiggle=2;curveFitting=1;fontFamily=Architects Daughter;fontSource=https%3A%2F%2Ffonts.googleapis.com%2Fcss%3Ffamily%3DArchitects%2BDaughter;fontSize=20;" vertex="1" parent="1">
                    <mxGeometry x="-570" y="1020" width="100" height="55" as="geometry"/>
                </mxCell>
                <mxCell id="92" value="LAN" style="text;html=1;align=center;verticalAlign=middle;resizable=0;points=[];autosize=1;strokeColor=none;fillColor=none;fontSize=28;fontFamily=Architects Daughter;sketch=1;hachureGap=4;jiggle=2;curveFitting=1;fontSource=https%3A%2F%2Ffonts.googleapis.com%2Fcss%3Ffamily%3DArchitects%2BDaughter;" vertex="1" parent="1">
                    <mxGeometry x="-430" y="1022.5" width="80" height="50" as="geometry"/>
                </mxCell>
                <mxCell id="93" value="" style="verticalAlign=top;verticalLabelPosition=bottom;labelPosition=center;align=center;html=1;outlineConnect=0;fillColor=#6a00ff;strokeColor=#3700CC;gradientDirection=north;strokeWidth=2;shape=mxgraph.networks.users;glass=0;sketch=1;hachureGap=4;jiggle=2;curveFitting=1;fontFamily=Architects Daughter;fontSource=https%3A%2F%2Ffonts.googleapis.com%2Fcss%3Ffamily%3DArchitects%2BDaughter;fontSize=23;fontColor=#ffffff;" vertex="1" parent="1">
                    <mxGeometry x="-590" y="1160" width="90" height="100" as="geometry"/>
                </mxCell>
                <mxCell id="94" style="edgeStyle=none;sketch=1;hachureGap=4;jiggle=2;curveFitting=1;html=1;exitX=1;exitY=0.5;exitDx=0;exitDy=0;exitPerimeter=0;fontFamily=Architects Daughter;fontSource=https%3A%2F%2Ffonts.googleapis.com%2Fcss%3Ffamily%3DArchitects%2BDaughter;fontSize=23;startArrow=none;" edge="1" target="93" parent="1">
                    <mxGeometry relative="1" as="geometry">
                        <mxPoint x="-460.0000000000009" y="1206.2399999999998" as="sourcePoint"/>
                    </mxGeometry>
                </mxCell>
                <mxCell id="95" value="" style="edgeStyle=none;sketch=1;hachureGap=4;jiggle=2;curveFitting=1;html=1;exitX=1;exitY=0.5;exitDx=0;exitDy=0;exitPerimeter=0;fontFamily=Architects Daughter;fontSource=https%3A%2F%2Ffonts.googleapis.com%2Fcss%3Ffamily%3DArchitects%2BDaughter;fontSize=23;endArrow=none;" edge="1" source="93" parent="1">
                    <mxGeometry relative="1" as="geometry">
                        <mxPoint x="-520" y="1224.9999999999998" as="sourcePoint"/>
                        <mxPoint x="-460.0000000000009" y="1213.3422222222225" as="targetPoint"/>
                    </mxGeometry>
                </mxCell>
                <mxCell id="104" value="World wide net" style="text;html=1;align=center;verticalAlign=middle;resizable=0;points=[];autosize=1;strokeColor=none;fillColor=default;fontSize=28;fontFamily=Architects Daughter;sketch=1;hachureGap=4;jiggle=2;curveFitting=1;fontSource=https%3A%2F%2Ffonts.googleapis.com%2Fcss%3Ffamily%3DArchitects%2BDaughter;glass=0;" vertex="1" parent="1">
                    <mxGeometry x="-440" y="1183.75" width="220" height="50" as="geometry"/>
                </mxCell>
                <mxCell id="107" value="&lt;font style=&quot;font-size: 40px;&quot;&gt;git repo&lt;/font&gt;" style="text;html=1;align=center;verticalAlign=middle;resizable=0;points=[];autosize=1;strokeColor=none;fillColor=none;fontSize=28;fontFamily=Architects Daughter;sketch=1;hachureGap=4;jiggle=2;curveFitting=1;fontSource=https%3A%2F%2Ffonts.googleapis.com%2Fcss%3Ffamily%3DArchitects%2BDaughter;" vertex="1" parent="1">
                    <mxGeometry x="-420" y="915" width="170" height="60" as="geometry"/>
                </mxCell>
                <mxCell id="149" value="Legend" style="text;html=1;align=center;verticalAlign=middle;resizable=0;points=[];autosize=1;strokeColor=none;fillColor=none;fontSize=40;fontFamily=Architects Daughter;fontColor=#FF33FF;sketch=1;hachureGap=4;jiggle=2;curveFitting=1;fontSource=https%3A%2F%2Ffonts.googleapis.com%2Fcss%3Ffamily%3DArchitects%2BDaughter;labelBackgroundColor=default;" vertex="1" parent="1">
                    <mxGeometry x="-480" y="840" width="160" height="60" as="geometry"/>
                </mxCell>
                <mxCell id="150" value="&amp;nbsp; &amp;nbsp;&amp;nbsp;" style="text;html=1;align=center;verticalAlign=middle;resizable=0;points=[];autosize=1;strokeColor=none;fillColor=none;fontSize=40;fontFamily=Architects Daughter;fontColor=#FF33FF;sketch=1;hachureGap=4;jiggle=2;curveFitting=1;fontSource=https%3A%2F%2Ffonts.googleapis.com%2Fcss%3Ffamily%3DArchitects%2BDaughter;labelBackgroundColor=default;" vertex="1" parent="1">
                    <mxGeometry x="-569.5" y="830" width="90" height="60" as="geometry"/>
                </mxCell>
                <mxCell id="105" value="" style="verticalLabelPosition=bottom;html=1;verticalAlign=top;align=center;strokeColor=#A50040;fillColor=#d80073;shape=mxgraph.azure.git_repository;glass=0;sketch=1;hachureGap=4;jiggle=2;curveFitting=1;fontFamily=Architects Daughter;fontSource=https%3A%2F%2Ffonts.googleapis.com%2Fcss%3Ffamily%3DArchitects%2BDaughter;fontSize=28;fontColor=#ffffff;" vertex="1" parent="1">
                    <mxGeometry x="-604" y="870" width="159" height="130" as="geometry"/>
                </mxCell>
            </root>
        </mxGraphModel>
    </diagram>
</mxfile>